<mxfile host="app.diagrams.net" modified="2021-01-22T06:29:26.912Z" agent="5.0 (Macintosh; Intel Mac OS X 10_15_7) AppleWebKit/537.36 (KHTML, like Gecko) Chrome/87.0.4280.141 Safari/537.36" etag="6i3NJamYMTP6iSC7cXb4" version="14.2.5" type="github">
  <diagram id="6a731a19-8d31-9384-78a2-239565b7b9f0" name="Page-1">
    <mxGraphModel dx="696" dy="453" grid="1" gridSize="10" guides="1" tooltips="1" connect="1" arrows="1" fold="1" page="1" pageScale="1" pageWidth="1169" pageHeight="827" background="#ffffff" math="0" shadow="0">
      <root>
        <mxCell id="0" />
        <mxCell id="1" parent="0" />
        <mxCell id="d0uEoVW-U5WtOEtZE68D-1613" value="" style="endArrow=none;dashed=1;html=1;dashPattern=1 3;strokeWidth=2;" parent="1" edge="1">
          <mxGeometry width="50" height="50" relative="1" as="geometry">
            <mxPoint x="30" y="864.66" as="sourcePoint" />
            <mxPoint x="583.0651434536638" y="864.66" as="targetPoint" />
          </mxGeometry>
        </mxCell>
        <mxCell id="d0uEoVW-U5WtOEtZE68D-1614" value="司机单个箱子扣分" style="edgeLabel;html=1;align=center;verticalAlign=middle;resizable=0;points=[];" parent="d0uEoVW-U5WtOEtZE68D-1613" vertex="1" connectable="0">
          <mxGeometry x="0.8357" y="-2" relative="1" as="geometry">
            <mxPoint as="offset" />
          </mxGeometry>
        </mxCell>
        <mxCell id="d0uEoVW-U5WtOEtZE68D-1603" value="" style="endArrow=none;html=1;dashed=1;" parent="1" edge="1">
          <mxGeometry width="50" height="50" relative="1" as="geometry">
            <mxPoint x="455" y="673" as="sourcePoint" />
            <mxPoint x="454.6600000000001" y="533" as="targetPoint" />
          </mxGeometry>
        </mxCell>
        <mxCell id="d0uEoVW-U5WtOEtZE68D-1594" value="" style="endArrow=none;html=1;dashed=1;" parent="1" edge="1">
          <mxGeometry width="50" height="50" relative="1" as="geometry">
            <mxPoint x="265" y="730" as="sourcePoint" />
            <mxPoint x="265" y="550" as="targetPoint" />
          </mxGeometry>
        </mxCell>
        <mxCell id="d0uEoVW-U5WtOEtZE68D-1557" style="edgeStyle=orthogonalEdgeStyle;rounded=0;orthogonalLoop=1;jettySize=auto;html=1;exitX=1;exitY=0.5;exitDx=0;exitDy=0;entryX=0;entryY=0.5;entryDx=0;entryDy=0;endArrow=none;endFill=0;" parent="1" source="d0uEoVW-U5WtOEtZE68D-1542" target="d0uEoVW-U5WtOEtZE68D-1555" edge="1">
          <mxGeometry relative="1" as="geometry" />
        </mxCell>
        <mxCell id="d0uEoVW-U5WtOEtZE68D-1558" value="order_assign_driver" style="edgeLabel;html=1;align=center;verticalAlign=middle;resizable=0;points=[];fontStyle=1" parent="d0uEoVW-U5WtOEtZE68D-1557" vertex="1" connectable="0">
          <mxGeometry x="0.0848" relative="1" as="geometry">
            <mxPoint as="offset" />
          </mxGeometry>
        </mxCell>
        <mxCell id="d0uEoVW-U5WtOEtZE68D-1542" value="Box" style="rounded=1;whiteSpace=wrap;html=1;align=center;" parent="1" vertex="1">
          <mxGeometry x="140" y="350" width="50" height="30" as="geometry" />
        </mxCell>
        <mxCell id="d0uEoVW-U5WtOEtZE68D-1544" value="" style="endArrow=classic;html=1;" parent="1" edge="1">
          <mxGeometry width="50" height="50" relative="1" as="geometry">
            <mxPoint x="70" y="364.66" as="sourcePoint" />
            <mxPoint x="140" y="364.66" as="targetPoint" />
          </mxGeometry>
        </mxCell>
        <mxCell id="d0uEoVW-U5WtOEtZE68D-1546" value="" style="endArrow=classic;html=1;" parent="1" edge="1">
          <mxGeometry width="50" height="50" relative="1" as="geometry">
            <mxPoint x="80" y="310" as="sourcePoint" />
            <mxPoint x="140" y="350" as="targetPoint" />
          </mxGeometry>
        </mxCell>
        <mxCell id="d0uEoVW-U5WtOEtZE68D-1548" value="" style="endArrow=classic;html=1;" parent="1" edge="1">
          <mxGeometry width="50" height="50" relative="1" as="geometry">
            <mxPoint x="70" y="414.6600000000001" as="sourcePoint" />
            <mxPoint x="140" y="380" as="targetPoint" />
          </mxGeometry>
        </mxCell>
        <mxCell id="d0uEoVW-U5WtOEtZE68D-1556" value="" style="group" parent="1" vertex="1" connectable="0">
          <mxGeometry x="380" y="305" width="90" height="120" as="geometry" />
        </mxCell>
        <mxCell id="d0uEoVW-U5WtOEtZE68D-1555" value="" style="rounded=1;whiteSpace=wrap;html=1;align=center;fillColor=none;" parent="d0uEoVW-U5WtOEtZE68D-1556" vertex="1">
          <mxGeometry width="90" height="120" as="geometry" />
        </mxCell>
        <mxCell id="d0uEoVW-U5WtOEtZE68D-1553" value="Driver" style="rounded=1;whiteSpace=wrap;html=1;align=center;" parent="d0uEoVW-U5WtOEtZE68D-1556" vertex="1">
          <mxGeometry x="20" y="21" width="50" height="30" as="geometry" />
        </mxCell>
        <mxCell id="d0uEoVW-U5WtOEtZE68D-1554" value="Convoy" style="rounded=1;whiteSpace=wrap;html=1;align=center;" parent="d0uEoVW-U5WtOEtZE68D-1556" vertex="1">
          <mxGeometry x="20" y="69" width="50" height="30" as="geometry" />
        </mxCell>
        <mxCell id="d0uEoVW-U5WtOEtZE68D-1574" style="edgeStyle=orthogonalEdgeStyle;rounded=0;orthogonalLoop=1;jettySize=auto;html=1;exitX=0.5;exitY=0;exitDx=0;exitDy=0;entryX=0.5;entryY=1;entryDx=0;entryDy=0;endArrow=open;endFill=0;" parent="1" source="d0uEoVW-U5WtOEtZE68D-1559" target="d0uEoVW-U5WtOEtZE68D-1573" edge="1">
          <mxGeometry relative="1" as="geometry" />
        </mxCell>
        <mxCell id="d0uEoVW-U5WtOEtZE68D-1559" value="Grab" style="rounded=1;whiteSpace=wrap;html=1;align=center;" parent="1" vertex="1">
          <mxGeometry x="200" y="245" width="40" height="25" as="geometry" />
        </mxCell>
        <mxCell id="d0uEoVW-U5WtOEtZE68D-1575" style="edgeStyle=orthogonalEdgeStyle;rounded=0;orthogonalLoop=1;jettySize=auto;html=1;exitX=0.5;exitY=0;exitDx=0;exitDy=0;endArrow=open;endFill=0;" parent="1" source="d0uEoVW-U5WtOEtZE68D-1560" edge="1">
          <mxGeometry relative="1" as="geometry">
            <mxPoint x="250" y="200" as="targetPoint" />
          </mxGeometry>
        </mxCell>
        <mxCell id="d0uEoVW-U5WtOEtZE68D-1560" value="Assign" style="rounded=1;whiteSpace=wrap;html=1;align=center;" parent="1" vertex="1">
          <mxGeometry x="260" y="245" width="40" height="25" as="geometry" />
        </mxCell>
        <mxCell id="d0uEoVW-U5WtOEtZE68D-1561" value="关联(已有司机)" style="rounded=1;whiteSpace=wrap;html=1;align=center;" parent="1" vertex="1">
          <mxGeometry x="320" y="239" width="60" height="35" as="geometry" />
        </mxCell>
        <mxCell id="d0uEoVW-U5WtOEtZE68D-1564" style="edgeStyle=orthogonalEdgeStyle;rounded=0;orthogonalLoop=1;jettySize=auto;html=1;exitX=0.5;exitY=1;exitDx=0;exitDy=0;endArrow=none;endFill=0;" parent="1" source="d0uEoVW-U5WtOEtZE68D-1563" edge="1">
          <mxGeometry relative="1" as="geometry">
            <mxPoint x="289.79310344827593" y="360" as="targetPoint" />
          </mxGeometry>
        </mxCell>
        <mxCell id="d0uEoVW-U5WtOEtZE68D-1563" value="" style="shape=partialRectangle;whiteSpace=wrap;html=1;bottom=1;right=1;left=1;top=0;fillColor=none;routingCenterX=-0.5;align=center;" parent="1" vertex="1">
          <mxGeometry x="220" y="276" width="140" height="14" as="geometry" />
        </mxCell>
        <mxCell id="d0uEoVW-U5WtOEtZE68D-1566" style="edgeStyle=orthogonalEdgeStyle;rounded=0;orthogonalLoop=1;jettySize=auto;html=1;exitX=0;exitY=0.5;exitDx=0;exitDy=0;entryX=1;entryY=0.5;entryDx=0;entryDy=0;endArrow=open;endFill=0;" parent="1" source="d0uEoVW-U5WtOEtZE68D-1565" target="d0uEoVW-U5WtOEtZE68D-1555" edge="1">
          <mxGeometry relative="1" as="geometry" />
        </mxCell>
        <mxCell id="d0uEoVW-U5WtOEtZE68D-1567" value="使用" style="edgeLabel;html=1;align=center;verticalAlign=middle;resizable=0;points=[];" parent="d0uEoVW-U5WtOEtZE68D-1566" vertex="1" connectable="0">
          <mxGeometry x="-0.04" y="2" relative="1" as="geometry">
            <mxPoint as="offset" />
          </mxGeometry>
        </mxCell>
        <mxCell id="d0uEoVW-U5WtOEtZE68D-1565" value="卡券Coupon&lt;br&gt;司机卡券&lt;br&gt;车队卡券" style="rounded=1;whiteSpace=wrap;html=1;align=center;" parent="1" vertex="1">
          <mxGeometry x="520" y="335" width="80" height="60" as="geometry" />
        </mxCell>
        <mxCell id="d0uEoVW-U5WtOEtZE68D-1569" style="edgeStyle=orthogonalEdgeStyle;rounded=0;orthogonalLoop=1;jettySize=auto;html=1;exitX=0.5;exitY=0;exitDx=0;exitDy=0;endArrow=open;endFill=0;" parent="1" source="d0uEoVW-U5WtOEtZE68D-1568" edge="1">
          <mxGeometry relative="1" as="geometry">
            <mxPoint x="289.79310344827593" y="370" as="targetPoint" />
          </mxGeometry>
        </mxCell>
        <mxCell id="d0uEoVW-U5WtOEtZE68D-1572" value="还原" style="edgeLabel;html=1;align=center;verticalAlign=middle;resizable=0;points=[];" parent="d0uEoVW-U5WtOEtZE68D-1569" vertex="1" connectable="0">
          <mxGeometry x="0.0661" y="-1" relative="1" as="geometry">
            <mxPoint as="offset" />
          </mxGeometry>
        </mxCell>
        <mxCell id="d0uEoVW-U5WtOEtZE68D-1570" style="edgeStyle=orthogonalEdgeStyle;rounded=0;orthogonalLoop=1;jettySize=auto;html=1;exitX=1;exitY=0.5;exitDx=0;exitDy=0;entryX=0.5;entryY=1;entryDx=0;entryDy=0;endArrow=open;endFill=0;" parent="1" source="d0uEoVW-U5WtOEtZE68D-1568" target="d0uEoVW-U5WtOEtZE68D-1565" edge="1">
          <mxGeometry relative="1" as="geometry" />
        </mxCell>
        <mxCell id="d0uEoVW-U5WtOEtZE68D-1571" value="补偿券" style="edgeLabel;html=1;align=center;verticalAlign=middle;resizable=0;points=[];" parent="d0uEoVW-U5WtOEtZE68D-1570" vertex="1" connectable="0">
          <mxGeometry x="-0.2158" relative="1" as="geometry">
            <mxPoint as="offset" />
          </mxGeometry>
        </mxCell>
        <mxCell id="d0uEoVW-U5WtOEtZE68D-1568" value="重置" style="rounded=1;whiteSpace=wrap;html=1;align=center;" parent="1" vertex="1">
          <mxGeometry x="265" y="447" width="50" height="25" as="geometry" />
        </mxCell>
        <mxCell id="d0uEoVW-U5WtOEtZE68D-1573" value="微信通知&lt;br&gt;push" style="rounded=1;whiteSpace=wrap;html=1;align=center;" parent="1" vertex="1">
          <mxGeometry x="220" y="160" width="60" height="40" as="geometry" />
        </mxCell>
        <mxCell id="d0uEoVW-U5WtOEtZE68D-1577" value="Erp" style="rounded=1;whiteSpace=wrap;html=1;align=center;" parent="1" vertex="1">
          <mxGeometry x="40" y="290" width="40" height="34" as="geometry" />
        </mxCell>
        <mxCell id="d0uEoVW-U5WtOEtZE68D-1578" value="客户" style="rounded=1;whiteSpace=wrap;html=1;align=center;" parent="1" vertex="1">
          <mxGeometry x="30" y="346" width="40" height="34" as="geometry" />
        </mxCell>
        <mxCell id="d0uEoVW-U5WtOEtZE68D-1579" value="运去哪" style="rounded=1;whiteSpace=wrap;html=1;align=center;" parent="1" vertex="1">
          <mxGeometry x="30" y="397" width="40" height="34" as="geometry" />
        </mxCell>
        <mxCell id="d0uEoVW-U5WtOEtZE68D-1580" value="" style="shape=flexArrow;endArrow=classic;html=1;fillColor=#fad7ac;strokeColor=none;" parent="1" edge="1">
          <mxGeometry width="50" height="50" relative="1" as="geometry">
            <mxPoint x="289.66" y="493" as="sourcePoint" />
            <mxPoint x="289.66" y="553" as="targetPoint" />
          </mxGeometry>
        </mxCell>
        <mxCell id="d0uEoVW-U5WtOEtZE68D-1581" value="" style="endArrow=classic;html=1;" parent="1" edge="1">
          <mxGeometry width="50" height="50" relative="1" as="geometry">
            <mxPoint x="90" y="579" as="sourcePoint" />
            <mxPoint x="530" y="579" as="targetPoint" />
          </mxGeometry>
        </mxCell>
        <mxCell id="d0uEoVW-U5WtOEtZE68D-1586" value="从柜取单" style="edgeLabel;html=1;align=center;verticalAlign=middle;resizable=0;points=[];" parent="d0uEoVW-U5WtOEtZE68D-1581" vertex="1" connectable="0">
          <mxGeometry x="-0.8576" y="1" relative="1" as="geometry">
            <mxPoint as="offset" />
          </mxGeometry>
        </mxCell>
        <mxCell id="d0uEoVW-U5WtOEtZE68D-1587" value="出发" style="edgeLabel;html=1;align=center;verticalAlign=middle;resizable=0;points=[];" parent="d0uEoVW-U5WtOEtZE68D-1581" vertex="1" connectable="0">
          <mxGeometry x="-0.5285" y="1" relative="1" as="geometry">
            <mxPoint as="offset" />
          </mxGeometry>
        </mxCell>
        <mxCell id="d0uEoVW-U5WtOEtZE68D-1588" value="到达工厂" style="edgeLabel;html=1;align=center;verticalAlign=middle;resizable=0;points=[];" parent="d0uEoVW-U5WtOEtZE68D-1581" vertex="1" connectable="0">
          <mxGeometry x="-0.2056" y="1" relative="1" as="geometry">
            <mxPoint as="offset" />
          </mxGeometry>
        </mxCell>
        <mxCell id="d0uEoVW-U5WtOEtZE68D-1589" value="装货完成" style="edgeLabel;html=1;align=center;verticalAlign=middle;resizable=0;points=[];" parent="d0uEoVW-U5WtOEtZE68D-1581" vertex="1" connectable="0">
          <mxGeometry x="0.2113" y="1" relative="1" as="geometry">
            <mxPoint as="offset" />
          </mxGeometry>
        </mxCell>
        <mxCell id="d0uEoVW-U5WtOEtZE68D-1590" value="落箱" style="edgeLabel;html=1;align=center;verticalAlign=middle;resizable=0;points=[];" parent="d0uEoVW-U5WtOEtZE68D-1581" vertex="1" connectable="0">
          <mxGeometry x="0.6565" y="-1" relative="1" as="geometry">
            <mxPoint as="offset" />
          </mxGeometry>
        </mxCell>
        <mxCell id="d0uEoVW-U5WtOEtZE68D-1582" value="基本操作" style="text;html=1;strokeColor=none;fillColor=none;align=center;verticalAlign=middle;whiteSpace=wrap;rounded=0;" parent="1" vertex="1">
          <mxGeometry x="40" y="540" width="60" height="20" as="geometry" />
        </mxCell>
        <mxCell id="d0uEoVW-U5WtOEtZE68D-1591" value="迟到" style="rounded=1;whiteSpace=wrap;html=1;align=center;" parent="1" vertex="1">
          <mxGeometry x="240" y="610" width="50" height="30" as="geometry" />
        </mxCell>
        <mxCell id="d0uEoVW-U5WtOEtZE68D-1617" style="edgeStyle=orthogonalEdgeStyle;rounded=0;orthogonalLoop=1;jettySize=auto;html=1;exitX=1;exitY=0.5;exitDx=0;exitDy=0;entryX=0.5;entryY=0;entryDx=0;entryDy=0;endArrow=open;endFill=0;" parent="1" source="d0uEoVW-U5WtOEtZE68D-1592" target="d0uEoVW-U5WtOEtZE68D-1599" edge="1">
          <mxGeometry relative="1" as="geometry" />
        </mxCell>
        <mxCell id="d0uEoVW-U5WtOEtZE68D-1618" value="反馈" style="edgeLabel;html=1;align=center;verticalAlign=middle;resizable=0;points=[];" parent="d0uEoVW-U5WtOEtZE68D-1617" vertex="1" connectable="0">
          <mxGeometry x="0.0735" y="-1" relative="1" as="geometry">
            <mxPoint as="offset" />
          </mxGeometry>
        </mxCell>
        <mxCell id="d0uEoVW-U5WtOEtZE68D-1592" value="根据&lt;b&gt;&lt;font style=&quot;font-size: 14px&quot;&gt;门点&lt;/font&gt;&lt;/b&gt;地址准确性判断" style="rounded=1;whiteSpace=wrap;html=1;align=center;" parent="1" vertex="1">
          <mxGeometry x="195" y="670" width="140" height="30" as="geometry" />
        </mxCell>
        <mxCell id="d0uEoVW-U5WtOEtZE68D-1595" value="记录费用" style="rounded=1;whiteSpace=wrap;html=1;align=center;" parent="1" vertex="1">
          <mxGeometry x="430" y="610" width="50" height="30" as="geometry" />
        </mxCell>
        <mxCell id="d0uEoVW-U5WtOEtZE68D-1596" value="特殊操作" style="text;html=1;strokeColor=none;fillColor=none;align=center;verticalAlign=middle;whiteSpace=wrap;rounded=0;" parent="1" vertex="1">
          <mxGeometry x="40" y="630" width="60" height="20" as="geometry" />
        </mxCell>
        <mxCell id="d0uEoVW-U5WtOEtZE68D-1597" value="操作记录" style="rounded=1;whiteSpace=wrap;html=1;align=center;" parent="1" vertex="1">
          <mxGeometry x="470" y="502" width="70" height="38" as="geometry" />
        </mxCell>
        <mxCell id="d0uEoVW-U5WtOEtZE68D-1598" value="" style="endArrow=classic;html=1;" parent="1" edge="1">
          <mxGeometry width="50" height="50" relative="1" as="geometry">
            <mxPoint x="505" y="580" as="sourcePoint" />
            <mxPoint x="505" y="540" as="targetPoint" />
          </mxGeometry>
        </mxCell>
        <mxCell id="d0uEoVW-U5WtOEtZE68D-1602" value="记录" style="edgeLabel;html=1;align=center;verticalAlign=middle;resizable=0;points=[];" parent="d0uEoVW-U5WtOEtZE68D-1598" vertex="1" connectable="0">
          <mxGeometry x="-0.0246" relative="1" as="geometry">
            <mxPoint as="offset" />
          </mxGeometry>
        </mxCell>
        <mxCell id="d0uEoVW-U5WtOEtZE68D-1599" value="place地址记录" style="rounded=1;whiteSpace=wrap;html=1;align=center;" parent="1" vertex="1">
          <mxGeometry x="380" y="705" width="80" height="35" as="geometry" />
        </mxCell>
        <mxCell id="d0uEoVW-U5WtOEtZE68D-1604" value="" style="shape=flexArrow;endArrow=classic;html=1;fillColor=#fad7ac;strokeColor=none;" parent="1" edge="1">
          <mxGeometry width="50" height="50" relative="1" as="geometry">
            <mxPoint x="290.00000000000006" y="749.9999999999999" as="sourcePoint" />
            <mxPoint x="290.00000000000006" y="809.9999999999999" as="targetPoint" />
          </mxGeometry>
        </mxCell>
        <mxCell id="d0uEoVW-U5WtOEtZE68D-1605" value="评分" style="text;html=1;strokeColor=none;fillColor=none;align=center;verticalAlign=middle;whiteSpace=wrap;rounded=0;" parent="1" vertex="1">
          <mxGeometry x="40" y="827" width="50" height="23" as="geometry" />
        </mxCell>
        <mxCell id="d0uEoVW-U5WtOEtZE68D-1608" value="" style="endArrow=classic;html=1;strokeColor=#FF3399;" parent="1" edge="1">
          <mxGeometry width="50" height="50" relative="1" as="geometry">
            <mxPoint x="130" y="560" as="sourcePoint" />
            <mxPoint x="60" y="440" as="targetPoint" />
          </mxGeometry>
        </mxCell>
        <mxCell id="d0uEoVW-U5WtOEtZE68D-1609" value="同步数据至运去哪Erp" style="edgeLabel;html=1;align=center;verticalAlign=middle;resizable=0;points=[];" parent="d0uEoVW-U5WtOEtZE68D-1608" vertex="1" connectable="0">
          <mxGeometry x="0.2839" y="2" relative="1" as="geometry">
            <mxPoint as="offset" />
          </mxGeometry>
        </mxCell>
        <mxCell id="d0uEoVW-U5WtOEtZE68D-1610" value="Box" style="rounded=1;whiteSpace=wrap;html=1;align=center;" parent="1" vertex="1">
          <mxGeometry x="100" y="850" width="50" height="30" as="geometry" />
        </mxCell>
        <mxCell id="d0uEoVW-U5WtOEtZE68D-1611" value="Driver" style="rounded=1;whiteSpace=wrap;html=1;align=center;" parent="1" vertex="1">
          <mxGeometry x="190" y="850" width="50" height="30" as="geometry" />
        </mxCell>
        <mxCell id="d0uEoVW-U5WtOEtZE68D-1612" value="扣分" style="rounded=1;whiteSpace=wrap;html=1;align=center;" parent="1" vertex="1">
          <mxGeometry x="420" y="850" width="50" height="30" as="geometry" />
        </mxCell>
        <mxCell id="d0uEoVW-U5WtOEtZE68D-1615" value="司机评分" style="rounded=1;whiteSpace=wrap;html=1;align=center;" parent="1" vertex="1">
          <mxGeometry x="180" y="940" width="70" height="30" as="geometry" />
        </mxCell>
        <mxCell id="RTN78mNXonh_DTe8gEtp-1" value="调度记录" style="rounded=1;whiteSpace=wrap;html=1;" vertex="1" parent="1">
          <mxGeometry x="450" y="215" width="65" height="30" as="geometry" />
        </mxCell>
        <mxCell id="RTN78mNXonh_DTe8gEtp-2" value="上传箱子坐标" style="text;html=1;strokeColor=none;fillColor=none;align=center;verticalAlign=middle;whiteSpace=wrap;rounded=0;" vertex="1" parent="1">
          <mxGeometry x="540" y="570" width="80" height="20" as="geometry" />
        </mxCell>
      </root>
    </mxGraphModel>
  </diagram>
</mxfile>
